PathFileType	4	(X/Y/Z)	./resultDataOpenSim/trcMotMarkerGrf/sub06/qtm-02-04.trc
DataRate	CameraRate	NumFrames	NumMarkers	Units	OrigDataRate	OrigDataStartFrame	OrigNumFrames
250.000000	250.000000	12	24	m	250.000000	1	492
Frame#	Time	L.Toe.Tip			R.Toe.Tip			L.Ankle.Lat			R.Ankle.Lat			L.Ankle.Med			R.Ankle.Med			L.Heel			R.Heel			L.Knee.Lat			R.Knee.Lat			L.Knee.Med			R.Knee.Med			L.Thigh.Upper			R.Thigh.Upper			L.ASIS			R.ASIS			V.Sacral			L.Acromium			R.Acromium			C7			L.Elbow			R.Elbow			L.Wrist.Lat			R.Wrist.Lat
		X1	Y1	Z1	X2	Y2	Z2	X3	Y3	Z3	X4	Y4	Z4	X5	Y5	Z5	X6	Y6	Z6	X7	Y7	Z7	X8	Y8	Z8	X9	Y9	Z9	X10	Y10	Z10	X11	Y11	Z11	X12	Y12	Z12	X13	Y13	Z13	X14	Y14	Z14	X15	Y15	Z15	X16	Y16	Z16	X17	Y17	Z17	X18	Y18	Z18	X19	Y19	Z19	X20	Y20	Z20	X21	Y21	Z21	X22	Y22	Z22	X23	Y23	Z23	X24	Y24	Z24

1	0	-1.5186589	0.032320677	-0.062273784	-1.1591651	0.062217243	0.15296377	-1.6432278	0.070045063	-0.074793408	-1.2910473	0.083107832	0.14872228	-1.6327348	0.081893248	0.0092837426	-1.2570712	0.10511914	0.067441943	NaN	NaN	NaN	-1.3303892	0.056766414	0.074258152	-1.5146812	0.41958282	-0.094931871	-1.2524139	0.47325883	0.16537719	-1.5285272	0.42170043	0.024644489	-1.261442	0.45402373	0.040102303	-1.4431351	0.80327021	-0.16514012	-1.4328792	0.8014982	0.1861056	-1.3635497	0.84202659	-0.12290933	-1.3480892	0.84931356	0.1198255	-1.5312609	0.9302701	0.021681209	-1.3743073	1.3372003	-0.17205563	-1.3746494	1.3147772	0.18837579	-1.4488043	1.3659173	0.0094770434	-1.3922656	1.0152407	-0.24886183	-1.5057767	1.0248857	0.2485036	-1.1773162	0.88510471	-0.22389454	-1.3701542	0.81505182	0.26723911
2	0.004	-1.5186655	0.032273273	-0.062255664	-1.1401211	0.063485243	0.1534011	-1.6432177	0.070293889	-0.074683818	-1.2723963	0.081009986	0.14955155	-1.6325735	0.082353121	0.0092643087	-1.2399551	0.10389405	0.068441204	NaN	NaN	NaN	-1.3112007	0.053711367	0.074914975	-1.5127315	0.41918648	-0.094810903	-1.2447901	0.47231553	0.16545472	-1.5268226	0.42128073	0.024759662	-1.2543584	0.4525732	0.039915436	-1.4378185	0.80186235	-0.16506308	-1.4264053	0.80020126	0.18661224	-1.3579492	0.84057578	-0.12271079	-1.3419703	0.8479749	0.12026741	-1.5260212	0.92831871	0.021867008	-1.3685444	1.3357239	-0.17180025	-1.3693401	1.3132344	0.18869319	-1.4431391	1.3646198	0.0099194223	-1.3845057	1.0135603	-0.2487667	-1.5002996	1.0231846	0.24766072	-1.1682555	0.88573737	-0.22245543	-1.3677096	0.81285404	0.26775996
3	0.008	-1.5186675	0.032226497	-0.062245204	-1.1211272	0.064817975	0.1538295	-1.6430931	0.070571676	-0.074650782	-1.2537216	0.079101248	0.15040607	-1.6324778	0.082795509	0.0092514997	-1.2228708	0.10280598	0.069425012	NaN	NaN	NaN	-1.2920443	0.050842412	0.075628808	-1.5107148	0.41875593	-0.094733013	-1.2369866	0.47137484	0.1655585	-1.524756	0.42094466	0.024811915	-1.2473116	0.45106449	0.039732236	-1.4325018	0.80044969	-0.1648791	-1.4199527	0.79882305	0.18706315	-1.3523259	0.83909529	-0.1225243	-1.335777	0.84658473	0.12069649	-1.5203442	0.92642365	0.022096557	-1.3627913	1.33422	-0.17156856	-1.3640064	1.3116491	0.18901991	-1.4374624	1.3632888	0.010309132	-1.3767522	1.0118505	-0.24869371	-1.4948449	1.0214888	0.24687495	-1.1592658	0.88633744	-0.2210351	-1.3652017	0.81062927	0.26830135
4	0.012	-1.5186624	0.032185606	-0.062250456	-1.1022144	0.066278818	0.15421755	-1.6427639	0.070893866	-0.074763034	-1.2350459	0.077488524	0.15127773	-1.6324586	0.083218325	0.0092483984	-1.2057452	0.10196804	0.070365479	NaN	NaN	NaN	-1.2729498	0.048234288	0.076467117	-1.5085885	0.41827441	-0.094710628	-1.2292664	0.47034401	0.16561659	-1.5223281	0.42068036	0.024801249	-1.2403263	0.44946283	0.039542956	-1.4271828	0.7990369	-0.1645992	-1.4135085	0.79735605	0.18744963	-1.3466309	0.83757905	-0.12233029	-1.3294915	0.84511565	0.12110259	-1.514134	0.92459293	0.022370567	-1.3570339	1.3326651	-0.17136021	-1.3586122	1.3099921	0.1893553	-1.4317727	1.3618959	0.010588956	-1.3689905	1.010092	-0.24863693	-1.4894349	1.0198167	0.24619378	-1.1503689	0.88688028	-0.2196387	-1.3626104	0.80836388	0.26886506
5	0.016	-1.5186478	0.032153497	-0.062274359	-1.0834538	0.067908948	0.15454258	-1.6422345	0.071253708	-0.075020209	-1.2164286	0.076208146	0.15215675	-1.6324564	0.08362037	0.0092501736	-1.1885362	0.10142157	0.07124516	NaN	NaN	NaN	-1.2539928	0.045879746	0.077478784	-1.506338	0.41774244	-0.094728501	-1.2221718	0.46909789	0.16550169	-1.5197505	0.42041452	0.024769576	-1.2334209	0.44776555	0.03932846	-1.4218539	0.79761281	-0.16429867	-1.4070746	0.79580523	0.18777809	-1.3408536	0.83604077	-0.12211353	-1.3231447	0.84356545	0.12147841	-1.5075611	0.92280155	0.022668312	-1.3512521	1.331043	-0.17115406	-1.3531492	1.3082632	0.18969453	-1.4260831	1.3604366	0.010751183	-1.3612186	1.0082841	-0.24858017	-1.4840985	1.0181789	0.24564517	-1.1415606	0.88734669	-0.21826435	-1.3599494	0.80606471	0.26944511
6	0.02	-1.5186209	0.032123656	-0.062311295	-1.0649037	0.069722034	0.15481879	-1.641681	0.071638881	-0.075288379	-1.1978947	0.075267742	0.15306338	-1.6323738	0.083998129	0.0092490012	-1.171281	0.10115118	0.072082454	NaN	NaN	NaN	-1.2352328	0.043812564	0.078630619	-1.5039563	0.41716542	-0.094766254	-1.2159069	0.46759711	0.16516285	-1.51719	0.42008405	0.024761784	-1.2265919	0.44598203	0.03907009	-1.4165179	0.79615555	-0.16401445	-1.4006612	0.79415278	0.1880419	-1.33503	0.83449447	-0.12188742	-1.3167554	0.8419409	0.12182665	-1.5007718	0.92101647	0.023027683	-1.3454282	1.3293454	-0.17093458	-1.3476349	1.3064839	0.19004122	-1.4203923	1.3589265	0.010857128	-1.353446	1.0064377	-0.24851996	-1.4788641	1.016554	0.24524232	-1.1328189	0.88772539	-0.21690369	-1.3572201	0.80374057	0.27004249
7	0.024	-1.5185825	0.032085375	-0.062350586	-1.0465903	0.071712588	0.15508007	-1.6413526	0.072048478	-0.075379026	-1.1794782	0.074657446	0.15402486	-1.6321282	0.084363267	0.0092399637	-1.1540524	0.101146	0.07291237	NaN	NaN	NaN	-1.2167017	0.042130327	0.079810791	-1.5014364	0.41654784	-0.094810512	-1.2101193	0.46590866	0.16467448	-1.5147008	0.41966283	0.02480698	-1.2198264	0.44411935	0.038757218	-1.4112072	0.79466769	-0.16374433	-1.3942546	0.79240261	0.18824746	-1.3292077	0.83293937	-0.12167918	-1.3103123	0.84025326	0.12215882	-1.4938233	0.91921901	0.023541989	-1.3395653	1.3275834	-0.17070758	-1.3420831	1.3046723	0.19040028	-1.4146807	1.3573881	0.010989874	-1.3456793	1.004566	-0.24845095	-1.4737226	1.0148799	0.24496978	-1.1241271	0.88801681	-0.21554297	-1.3544052	0.80139449	0.27065856
8	0.028	-1.5185381	0.032034184	-0.062383994	-1.0285478	0.073877304	0.15535252	-1.6413046	0.072485099	-0.0752478	-1.1612563	0.074351106	0.15504727	-1.6317035	0.084746356	0.0092199379	-1.1369407	0.10141124	0.073753811	NaN	NaN	NaN	-1.1984312	0.040885331	0.080938478	-1.4987703	0.4158944	-0.094857612	-1.2043014	0.46412422	0.16415608	-1.5122005	0.41915996	0.024901429	-1.2131209	0.44218381	0.038392189	-1.4059393	0.79315448	-0.16347744	-1.387834	0.79058021	0.18841927	-1.3234268	0.83135598	-0.12152154	-1.3037863	0.83851324	0.12248024	-1.4868473	0.9174369	0.024205612	-1.3336822	1.3257821	-0.1704838	-1.3364845	1.3028314	0.19076953	-1.4089261	1.3558403	0.011202018	-1.3379133	1.0026778	-0.24834891	-1.4685708	1.0130666	0.24475308	-1.1154857	0.88822711	-0.21417064	-1.3514922	0.79902944	0.27128916
9	0.032	-1.5184886	0.031977168	-0.062417761	-1.010838	0.076240306	0.15563857	-1.6413292	0.072942957	-0.075043976	-1.1433322	0.074315875	0.15611532	-1.6311597	0.085180567	0.0091878358	-1.120089	0.10193535	0.074603743	NaN	NaN	NaN	-1.1804598	0.040039679	0.082021684	-1.4959452	0.41521046	-0.094912151	-1.1982215	0.46229482	0.16368326	-1.5095221	0.41859305	0.02501567	-1.2064824	0.44018743	0.037991227	-1.4006914	0.79159281	-0.16317156	-1.3814036	0.78870189	0.18857033	-1.3177077	0.82972802	-0.12144349	-1.2971783	0.83672994	0.12278869	-1.4802565	0.91576354	0.024729072	-1.3277875	1.3239588	-0.1702573	-1.3308334	1.3009658	0.19114963	-1.4031208	1.3542884	0.011492615	-1.3301422	1.000779	-0.24819073	-1.4632425	1.0110518	0.24447977	-1.1069073	0.88836058	-0.21278534	-1.3484898	0.79665285	0.27193059
10	0.036	-1.5184162	0.031931242	-0.062488125	-0.99349576	0.07886315	0.15589687	-1.6412112	0.073408792	-0.074926266	-1.1257999	0.074528802	0.1572038	-1.6305666	0.085676385	0.0091439374	-1.1036673	0.10267851	0.075448102	NaN	NaN	NaN	-1.1628282	0.039517619	0.083094278	-1.4929454	0.41449802	-0.094973003	-1.191917	0.46044607	0.16328061	-1.5065711	0.41795248	0.025127518	-1.1999142	0.4381507	0.037574981	-1.3954445	0.7899659	-0.16272078	-1.3749887	0.78677885	0.1886965	-1.3120215	0.82806934	-0.12143771	-1.2905409	0.83491847	0.12308282	-1.4746697	0.91431884	0.024660138	-1.3218733	1.3221176	-0.17001065	-1.3251549	1.2990935	0.19155006	-1.3972733	1.3527237	0.011824888	-1.322375	0.99887534	-0.24798517	-1.4576813	1.0088886	0.24410603	-1.0984053	0.88842122	-0.21139594	-1.3454185	0.79427705	0.27258714
11	0.04	-1.5182805	0.031916705	-0.062661798	-0.97652675	0.081818663	0.15602066	-1.6409176	0.073874604	-0.074927715	-1.1087339	0.074982007	0.15827732	-1.6299525	0.086205235	0.0090866922	-1.0877893	0.10359268	0.076267026	NaN	NaN	NaN	-1.145609	0.039233331	0.084152717	-1.4897641	0.41375469	-0.09502417	-1.1854999	0.45859758	0.16294562	-1.503386	0.41721599	0.025232405	-1.193406	0.43609896	0.037152998	-1.3902123	0.78831012	-0.16202498	-1.3686137	0.78483481	0.18879409	-1.3062852	0.82641196	-0.12143867	-1.2839151	0.8330933	0.12336026	-1.4703007	0.91313354	0.02394434	-1.3159304	1.3202617	-0.16973434	-1.319478	1.2972303	0.19198074	-1.3913975	1.3511378	0.012159275	-1.314631	0.996973	-0.24777017	-1.4521257	1.0067884	0.24377128	-1.0899863	0.88841651	-0.21001303	-1.3422961	0.79191566	0.27326826
12	0.044	-1.5180494	0.031944686	-0.062984895	-0.96002106	0.085116492	0.15590166	-1.6405253	0.074352489	-0.075004416	-1.0922337	0.075643968	0.15927988	-1.6293305	0.086718496	0.0090157651	-1.0724936	0.1046329	0.077033734	NaN	NaN	NaN	-1.1289225	0.039090904	0.08515816	-1.4864161	0.41298058	-0.095050518	-1.1790844	0.45674995	0.16265616	-1.5000287	0.41639678	0.025325364	-1.1869329	0.43405423	0.036720797	-1.3850072	0.78669345	-0.16114407	-1.3622752	0.78289033	0.18886761	-1.3004153	0.82476163	-0.12134356	-1.2772879	0.83125615	0.1236186	-1.4664549	0.91205396	0.023156623	-1.3099551	1.3184	-0.16943209	-1.3138037	1.2953793	0.19244442	-1.3855044	1.3495316	0.012469462	-1.3069198	0.99507779	-0.2475698	-1.4469872	1.0049916	0.24372138	-1.0816484	0.88835398	-0.2086428	-1.3391347	0.78957645	0.27397763
